<svg width="520" height="156" viewBox="0 0 520 156" fill="none" xmlns="http://www.w3.org/2000/svg">
<g id="Group 10">
<rect id="outer square" x="3" y="3" width="150" height="150" rx="20" stroke="#092AA5" stroke-width="6"/>
<rect id="inner square" x="48" y="48" width="60" height="60" rx="5" stroke="#092AA5" stroke-width="3"/>
<g id="Group 1">
<path id="Vector 2" d="M78 41C78 41 78 10.1529 78 7.91765C78 5.68235 74 3 74 3M78 41V7.91765" stroke="#092AA5" stroke-width="3" stroke-linecap="round" stroke-linejoin="round"/>
<path id="Vector 3" d="M41 78C41 78 10.1529 78 7.91765 78C5.68235 78 3 82 3 82M41 78H7.91765" stroke="#092AA5" stroke-width="3" stroke-linecap="round" stroke-linejoin="round"/>
<path id="Vector 4" d="M78 115C78 115 78 145.847 78 148.082C78 150.318 82 153 82 153M78 115V148.082" stroke="#092AA5" stroke-width="3" stroke-linecap="round" stroke-linejoin="round"/>
<path id="Vector 5" d="M115 78C115 78 145.847 78 148.082 78C150.318 78 153 74 153 74M115 78H148.082" stroke="#092AA5" stroke-width="3" stroke-linecap="round" stroke-linejoin="round"/>
</g>
<g id="Group 9">
<line id="Line 1" x1="11.5" y1="70.5" x2="39.5" y2="70.5" stroke="#092AA5" stroke-width="3" stroke-linecap="round" stroke-linejoin="round"/>
<line id="Line 5" x1="11.5" y1="85.5" x2="39.5" y2="85.5" stroke="#092AA5" stroke-width="3" stroke-linecap="round" stroke-linejoin="round"/>
</g>
<g id="Group 8">
<line id="Line 1_2" x1="85.5" y1="40.5" x2="85.5" y2="12.5" stroke="#092AA5" stroke-width="3" stroke-linecap="round" stroke-linejoin="round"/>
<line id="Line 6" x1="70.5" y1="40.5" x2="70.5" y2="12.5" stroke="#092AA5" stroke-width="3" stroke-linecap="round" stroke-linejoin="round"/>
</g>
<g id="Group 7">
<line id="Line 1_3" x1="85.5" y1="144.5" x2="85.5" y2="116.5" stroke="#092AA5" stroke-width="3" stroke-linecap="round" stroke-linejoin="round"/>
<line id="Line 7" x1="70.5" y1="144.5" x2="70.5" y2="116.5" stroke="#092AA5" stroke-width="3" stroke-linecap="round" stroke-linejoin="round"/>
</g>
<g id="Group 6">
<line id="Line 3" x1="115.5" y1="70.5" x2="143.5" y2="70.5" stroke="#092AA5" stroke-width="3" stroke-linecap="round" stroke-linejoin="round"/>
<line id="Line 4" x1="115.5" y1="85.5" x2="143.5" y2="85.5" stroke="#092AA5" stroke-width="3" stroke-linecap="round" stroke-linejoin="round"/>
</g>
<path id="Digital Dentistry Frontier" d="M187.422 34.9688H193.727C194.68 34.9688 195.664 35 196.68 35.0625C197.711 35.1094 198.711 35.2734 199.68 35.5547C200.664 35.8359 201.586 36.2734 202.445 36.8672C203.32 37.4453 204.086 38.2656 204.742 39.3281C205.398 40.375 205.914 41.7031 206.289 43.3125C206.68 44.9062 206.875 46.8594 206.875 49.1719V60.7969C206.875 63.1094 206.68 65.0703 206.289 66.6797C205.914 68.2891 205.398 69.6172 204.742 70.6641C204.086 71.7109 203.32 72.5312 202.445 73.125C201.586 73.7031 200.664 74.1328 199.68 74.4141C198.711 74.6953 197.711 74.8672 196.68 74.9297C195.664 74.9766 194.68 75 193.727 75H187.422V34.9688ZM195.039 70.7578C196.133 70.7578 197.031 70.6172 197.734 70.3359C198.453 70.0547 199.016 69.5625 199.422 68.8594C199.844 68.1406 200.133 67.1719 200.289 65.9531C200.445 64.7188 200.523 63.1641 200.523 61.2891V48.8672C200.523 46.9922 200.445 45.4453 200.289 44.2266C200.133 42.9922 199.844 42.0234 199.422 41.3203C199.016 40.6016 198.453 40.1016 197.734 39.8203C197.031 39.5391 196.133 39.3984 195.039 39.3984H193.492V70.7578H195.039ZM215.102 38.1094C214.008 38.1094 213.141 37.7812 212.5 37.125C211.875 36.4688 211.562 35.5078 211.562 34.2422C211.562 33.5391 211.641 32.9531 211.797 32.4844C211.969 32 212.203 31.6172 212.5 31.3359C212.812 31.0391 213.188 30.8281 213.625 30.7031C214.062 30.5625 214.562 30.4922 215.125 30.4922C216.297 30.4922 217.188 30.7891 217.797 31.3828C218.406 31.9766 218.711 32.9297 218.711 34.2422C218.711 35.4609 218.398 36.4141 217.773 37.1016C217.164 37.7734 216.273 38.1094 215.102 38.1094ZM212.031 42.7266H217.961V75H212.031V42.7266ZM229 77.2031C229 78.5938 229.258 79.5781 229.773 80.1562C230.289 80.7344 231.086 81.0234 232.164 81.0234C232.602 81.0234 233.023 80.9531 233.43 80.8125C233.836 80.6875 234.188 80.4453 234.484 80.0859C234.797 79.7422 235.047 79.2578 235.234 78.6328C235.422 78.0078 235.516 77.2031 235.516 76.2188V71.1328C234.984 71.8203 234.297 72.4141 233.453 72.9141C232.625 73.3984 231.594 73.6406 230.359 73.6406C230 73.6406 229.578 73.6094 229.094 73.5469C228.609 73.4688 228.109 73.3047 227.594 73.0547C227.078 72.8047 226.57 72.4297 226.07 71.9297C225.57 71.4141 225.125 70.7266 224.734 69.8672C224.344 69.0078 224.023 67.9375 223.773 66.6562C223.539 65.3594 223.422 63.7969 223.422 61.9688V53.4844C223.422 51.7344 223.539 50.25 223.773 49.0312C224.023 47.7969 224.344 46.7656 224.734 45.9375C225.125 45.1094 225.57 44.4609 226.07 43.9922C226.586 43.5234 227.102 43.1719 227.617 42.9375C228.148 42.6875 228.664 42.5312 229.164 42.4688C229.664 42.4062 230.109 42.375 230.5 42.375C231.281 42.375 231.969 42.4766 232.562 42.6797C233.172 42.8828 233.695 43.1562 234.133 43.5C234.586 43.8281 234.969 44.2031 235.281 44.625C235.594 45.0469 235.859 45.4688 236.078 45.8906L236.617 42.7031H241.234V73.6875C241.234 75.4844 241.062 77.1016 240.719 78.5391C240.375 79.9922 239.836 81.2266 239.102 82.2422C238.367 83.2734 237.43 84.0625 236.289 84.6094C235.164 85.1562 233.812 85.4297 232.234 85.4297C231.172 85.4297 230.172 85.3359 229.234 85.1484C228.297 84.9609 227.477 84.625 226.773 84.1406C226.07 83.6719 225.516 83.0234 225.109 82.1953C224.703 81.3828 224.5 80.3438 224.5 79.0781C224.5 78.8594 224.523 78.5859 224.57 78.2578C224.617 77.9297 224.695 77.5781 224.805 77.2031H229ZM232.375 69.0469C232.766 69.0469 233.109 68.9844 233.406 68.8594C233.719 68.7188 233.992 68.5391 234.227 68.3203C234.477 68.1016 234.688 67.8516 234.859 67.5703C235.047 67.2891 235.203 67 235.328 66.7031V49.0547C235.031 48.3984 234.633 47.8438 234.133 47.3906C233.648 46.9219 233.055 46.6875 232.352 46.6875C231.914 46.6875 231.516 46.7656 231.156 46.9219C230.797 47.0781 230.484 47.375 230.219 47.8125C229.953 48.2344 229.742 48.8281 229.586 49.5938C229.445 50.3438 229.375 51.3203 229.375 52.5234V63.1406C229.375 64.3438 229.445 65.3281 229.586 66.0938C229.742 66.8594 229.953 67.4609 230.219 67.8984C230.484 68.3359 230.797 68.6406 231.156 68.8125C231.531 68.9688 231.938 69.0469 232.375 69.0469ZM250.633 38.1094C249.539 38.1094 248.672 37.7812 248.031 37.125C247.406 36.4688 247.094 35.5078 247.094 34.2422C247.094 33.5391 247.172 32.9531 247.328 32.4844C247.5 32 247.734 31.6172 248.031 31.3359C248.344 31.0391 248.719 30.8281 249.156 30.7031C249.594 30.5625 250.094 30.4922 250.656 30.4922C251.828 30.4922 252.719 30.7891 253.328 31.3828C253.938 31.9766 254.242 32.9297 254.242 34.2422C254.242 35.4609 253.93 36.4141 253.305 37.1016C252.695 37.7734 251.805 38.1094 250.633 38.1094ZM247.562 42.7266H253.492V75H247.562V42.7266ZM260.383 46.9453H257.875V42.7266H260.898L262.094 34.3594H266.312V42.7266H271.469V46.9453H266.312V67.4766C266.312 68.1797 266.375 68.75 266.5 69.1875C266.641 69.6094 266.828 69.9453 267.062 70.1953C267.297 70.4297 267.57 70.5859 267.883 70.6641C268.195 70.7422 268.523 70.7812 268.867 70.7812C269.445 70.7812 269.953 70.7109 270.391 70.5703C270.844 70.4297 271.273 70.2344 271.68 69.9844V73.2656C271.336 73.6875 270.961 74.0312 270.555 74.2969C270.164 74.5625 269.758 74.7812 269.336 74.9531C268.914 75.1094 268.484 75.2188 268.047 75.2812C267.609 75.3438 267.18 75.375 266.758 75.375C265.93 75.375 265.133 75.2656 264.367 75.0469C263.602 74.8281 262.922 74.4141 262.328 73.8047C261.734 73.1797 261.258 72.3203 260.898 71.2266C260.555 70.1328 260.383 68.7109 260.383 66.9609V46.9453ZM280 75.3516C279 75.3516 278.109 75.1562 277.328 74.7656C276.562 74.3594 275.914 73.8125 275.383 73.125C274.852 72.4375 274.445 71.625 274.164 70.6875C273.898 69.7344 273.766 68.7031 273.766 67.5938C273.766 66.2656 273.93 65.0859 274.258 64.0547C274.586 63.0234 275.062 62.0938 275.688 61.2656C276.328 60.4375 277.117 59.6875 278.055 59.0156C278.992 58.3281 280.078 57.6797 281.312 57.0703C281.906 56.7734 282.57 56.4766 283.305 56.1797C284.055 55.8672 284.719 55.6016 285.297 55.3828V51.1172C285.297 50.4922 285.273 49.9141 285.227 49.3828C285.18 48.8359 285.062 48.3672 284.875 47.9766C284.703 47.5703 284.438 47.2578 284.078 47.0391C283.719 46.8047 283.227 46.6875 282.602 46.6875C282.18 46.6875 281.766 46.7656 281.359 46.9219C280.969 47.0781 280.617 47.3438 280.305 47.7188C280.008 48.0938 279.766 48.5938 279.578 49.2188C279.406 49.8438 279.32 50.6172 279.32 51.5391V52.9453H274.797C274.656 52.3359 274.547 51.7812 274.469 51.2812C274.406 50.7656 274.375 50.2578 274.375 49.7578C274.375 48.5547 274.578 47.4922 274.984 46.5703C275.406 45.6484 275.984 44.875 276.719 44.25C277.469 43.625 278.359 43.1562 279.391 42.8438C280.422 42.5156 281.555 42.3516 282.789 42.3516C284.398 42.3516 285.734 42.5312 286.797 42.8906C287.859 43.2344 288.703 43.7578 289.328 44.4609C289.969 45.1641 290.414 46.0469 290.664 47.1094C290.93 48.1719 291.062 49.4141 291.062 50.8359V75H286.656L286.234 72.2344C285.594 73.1562 284.734 73.9062 283.656 74.4844C282.594 75.0625 281.375 75.3516 280 75.3516ZM282.625 70.7812C283.125 70.7812 283.609 70.6562 284.078 70.4062C284.562 70.1406 284.969 69.8203 285.297 69.4453V59.3438C284.984 59.4688 284.633 59.6172 284.242 59.7891C283.852 59.9609 283.43 60.1875 282.977 60.4688C282.555 60.7344 282.141 61.0547 281.734 61.4297C281.328 61.8047 280.961 62.25 280.633 62.7656C280.32 63.2812 280.062 63.8672 279.859 64.5234C279.672 65.1641 279.578 65.8828 279.578 66.6797C279.578 67.9141 279.82 68.9062 280.305 69.6562C280.789 70.4062 281.562 70.7812 282.625 70.7812ZM297.297 32.3672H303.227V75H297.297V32.3672ZM187.422 94.9688H193.727C194.68 94.9688 195.664 95 196.68 95.0625C197.711 95.1094 198.711 95.2734 199.68 95.5547C200.664 95.8359 201.586 96.2734 202.445 96.8672C203.32 97.4453 204.086 98.2656 204.742 99.3281C205.398 100.375 205.914 101.703 206.289 103.312C206.68 104.906 206.875 106.859 206.875 109.172V120.797C206.875 123.109 206.68 125.07 206.289 126.68C205.914 128.289 205.398 129.617 204.742 130.664C204.086 131.711 203.32 132.531 202.445 133.125C201.586 133.703 200.664 134.133 199.68 134.414C198.711 134.695 197.711 134.867 196.68 134.93C195.664 134.977 194.68 135 193.727 135H187.422V94.9688ZM195.039 130.758C196.133 130.758 197.031 130.617 197.734 130.336C198.453 130.055 199.016 129.562 199.422 128.859C199.844 128.141 200.133 127.172 200.289 125.953C200.445 124.719 200.523 123.164 200.523 121.289V108.867C200.523 106.992 200.445 105.445 200.289 104.227C200.133 102.992 199.844 102.023 199.422 101.32C199.016 100.602 198.453 100.102 197.734 99.8203C197.031 99.5391 196.133 99.3984 195.039 99.3984H193.492V130.758H195.039ZM219.719 135.352C218.328 135.352 217.094 135.094 216.016 134.578C214.953 134.062 214.055 133.258 213.32 132.164C212.586 131.07 212.031 129.672 211.656 127.969C211.281 126.25 211.094 124.188 211.094 121.781V115.688C211.094 113.641 211.242 111.891 211.539 110.438C211.852 108.969 212.25 107.742 212.734 106.758C213.234 105.758 213.805 104.969 214.445 104.391C215.102 103.812 215.773 103.375 216.461 103.078C217.148 102.766 217.828 102.57 218.5 102.492C219.188 102.398 219.82 102.352 220.398 102.352C221.461 102.352 222.484 102.516 223.469 102.844C224.453 103.156 225.32 103.703 226.07 104.484C226.82 105.25 227.414 106.281 227.852 107.578C228.305 108.875 228.531 110.492 228.531 112.43C228.531 113.086 228.508 113.75 228.461 114.422C228.43 115.094 228.383 115.758 228.32 116.414C228.258 117.055 228.172 117.68 228.062 118.289C227.969 118.898 227.867 119.461 227.758 119.977H217.047V123.258C217.047 124.664 217.102 125.852 217.211 126.82C217.32 127.773 217.5 128.547 217.75 129.141C218.016 129.719 218.367 130.141 218.805 130.406C219.258 130.656 219.82 130.781 220.492 130.781C220.852 130.781 221.203 130.711 221.547 130.57C221.891 130.414 222.188 130.164 222.438 129.82C222.703 129.477 222.914 129.023 223.07 128.461C223.227 127.883 223.305 127.172 223.305 126.328V125.32H228.25V126.562C228.25 129.625 227.516 131.859 226.047 133.266C224.594 134.656 222.484 135.352 219.719 135.352ZM223 115.992C223.016 115.82 223.031 115.594 223.047 115.312C223.062 115.016 223.07 114.711 223.07 114.398C223.086 114.086 223.094 113.781 223.094 113.484C223.094 113.172 223.094 112.906 223.094 112.688C223.094 110.562 222.844 109.031 222.344 108.094C221.844 107.156 221.102 106.688 220.117 106.688C219.602 106.688 219.148 106.812 218.758 107.062C218.367 107.297 218.047 107.703 217.797 108.281C217.547 108.844 217.359 109.594 217.234 110.531C217.109 111.469 217.047 112.633 217.047 114.023V115.992H223ZM233.547 102.727H238.117L238.656 106.172V106.195C239.125 105.461 239.625 104.852 240.156 104.367C240.703 103.867 241.266 103.469 241.844 103.172C242.422 102.875 243.008 102.664 243.602 102.539C244.211 102.414 244.812 102.352 245.406 102.352C247.297 102.352 248.75 103.016 249.766 104.344C250.797 105.656 251.312 107.633 251.312 110.273V135H245.383V110.484C245.383 109.062 245.164 108.078 244.727 107.531C244.289 106.969 243.648 106.688 242.805 106.688C242.211 106.688 241.617 106.883 241.023 107.273C240.445 107.664 239.93 108.203 239.477 108.891V135H233.547V102.727ZM258.133 106.945H255.625V102.727H258.648L259.844 94.3594H264.062V102.727H269.219V106.945H264.062V127.477C264.062 128.18 264.125 128.75 264.25 129.188C264.391 129.609 264.578 129.945 264.812 130.195C265.047 130.43 265.32 130.586 265.633 130.664C265.945 130.742 266.273 130.781 266.617 130.781C267.195 130.781 267.703 130.711 268.141 130.57C268.594 130.43 269.023 130.234 269.43 129.984V133.266C269.086 133.688 268.711 134.031 268.305 134.297C267.914 134.562 267.508 134.781 267.086 134.953C266.664 135.109 266.234 135.219 265.797 135.281C265.359 135.344 264.93 135.375 264.508 135.375C263.68 135.375 262.883 135.266 262.117 135.047C261.352 134.828 260.672 134.414 260.078 133.805C259.484 133.18 259.008 132.32 258.648 131.227C258.305 130.133 258.133 128.711 258.133 126.961V106.945ZM276.461 98.1094C275.367 98.1094 274.5 97.7812 273.859 97.125C273.234 96.4688 272.922 95.5078 272.922 94.2422C272.922 93.5391 273 92.9531 273.156 92.4844C273.328 92 273.562 91.6172 273.859 91.3359C274.172 91.0391 274.547 90.8281 274.984 90.7031C275.422 90.5625 275.922 90.4922 276.484 90.4922C277.656 90.4922 278.547 90.7891 279.156 91.3828C279.766 91.9766 280.07 92.9297 280.07 94.2422C280.07 95.4609 279.758 96.4141 279.133 97.1016C278.523 97.7734 277.633 98.1094 276.461 98.1094ZM273.391 102.727H279.32V135H273.391V102.727ZM284.266 128.25C284.266 127.547 284.328 126.867 284.453 126.211C284.594 125.555 284.727 125.031 284.852 124.641H289.023C289.023 125.812 289.078 126.797 289.188 127.594C289.312 128.375 289.508 129 289.773 129.469C290.039 129.938 290.391 130.273 290.828 130.477C291.281 130.68 291.828 130.781 292.469 130.781C293.359 130.781 294.008 130.531 294.414 130.031C294.82 129.531 295.023 128.953 295.023 128.297C295.023 127.953 294.977 127.625 294.883 127.312C294.789 127 294.656 126.688 294.484 126.375C294.312 126.047 294.102 125.719 293.852 125.391C293.602 125.062 293.32 124.703 293.008 124.312L288.672 119.203C288.109 118.5 287.562 117.789 287.031 117.07C286.516 116.336 286.055 115.586 285.648 114.82C285.258 114.039 284.938 113.227 284.688 112.383C284.453 111.539 284.336 110.648 284.336 109.711C284.336 108.461 284.547 107.375 284.969 106.453C285.406 105.531 285.984 104.766 286.703 104.156C287.438 103.547 288.281 103.094 289.234 102.797C290.188 102.5 291.195 102.352 292.258 102.352C293.43 102.352 294.484 102.492 295.422 102.773C296.359 103.055 297.164 103.477 297.836 104.039C298.508 104.602 299.023 105.305 299.383 106.148C299.742 106.977 299.922 107.945 299.922 109.055C299.922 109.805 299.852 110.531 299.711 111.234C299.586 111.938 299.461 112.539 299.336 113.039H295.234C295.219 111.977 295.172 111.047 295.094 110.25C295.016 109.453 294.867 108.797 294.648 108.281C294.445 107.75 294.156 107.352 293.781 107.086C293.422 106.82 292.945 106.688 292.352 106.688C291.836 106.688 291.406 106.773 291.062 106.945C290.719 107.102 290.438 107.312 290.219 107.578C290.016 107.844 289.867 108.141 289.773 108.469C289.695 108.797 289.656 109.133 289.656 109.477C289.656 110.227 289.836 110.922 290.195 111.562C290.555 112.203 291.031 112.898 291.625 113.648L296.359 119.203C296.703 119.625 297.102 120.141 297.555 120.75C298.008 121.344 298.438 122.008 298.844 122.742C299.25 123.461 299.594 124.25 299.875 125.109C300.156 125.969 300.297 126.867 300.297 127.805C300.297 128.945 300.117 129.984 299.758 130.922C299.398 131.844 298.867 132.633 298.164 133.289C297.461 133.945 296.594 134.453 295.562 134.812C294.547 135.172 293.383 135.352 292.07 135.352C290.992 135.352 289.977 135.234 289.023 135C288.07 134.75 287.242 134.352 286.539 133.805C285.836 133.242 285.281 132.508 284.875 131.602C284.469 130.695 284.266 129.578 284.266 128.25ZM305.664 106.945H303.156V102.727H306.18L307.375 94.3594H311.594V102.727H316.75V106.945H311.594V127.477C311.594 128.18 311.656 128.75 311.781 129.188C311.922 129.609 312.109 129.945 312.344 130.195C312.578 130.43 312.852 130.586 313.164 130.664C313.477 130.742 313.805 130.781 314.148 130.781C314.727 130.781 315.234 130.711 315.672 130.57C316.125 130.43 316.555 130.234 316.961 129.984V133.266C316.617 133.688 316.242 134.031 315.836 134.297C315.445 134.562 315.039 134.781 314.617 134.953C314.195 135.109 313.766 135.219 313.328 135.281C312.891 135.344 312.461 135.375 312.039 135.375C311.211 135.375 310.414 135.266 309.648 135.047C308.883 134.828 308.203 134.414 307.609 133.805C307.016 133.18 306.539 132.32 306.18 131.227C305.836 130.133 305.664 128.711 305.664 126.961V106.945ZM320.828 102.727H325.164L325.68 106.008C326.336 104.789 327.086 103.875 327.93 103.266C328.789 102.656 329.664 102.352 330.555 102.352C332.258 102.352 333.516 102.875 334.328 103.922C335.141 104.969 335.547 106.539 335.547 108.633C335.547 108.898 335.523 109.219 335.477 109.594C335.445 109.953 335.391 110.336 335.312 110.742C335.25 111.133 335.164 111.531 335.055 111.938C334.961 112.328 334.859 112.688 334.75 113.016H330.625V110.016C330.625 109.359 330.578 108.82 330.484 108.398C330.406 107.977 330.297 107.641 330.156 107.391C330.016 107.125 329.852 106.945 329.664 106.852C329.477 106.742 329.273 106.688 329.055 106.688C328.586 106.688 328.148 106.844 327.742 107.156C327.352 107.453 327.023 107.875 326.758 108.422V135H320.828V102.727ZM338.078 141.211C338.969 141.336 339.789 141.305 340.539 141.117C341.289 140.945 341.93 140.609 342.461 140.109C343.008 139.609 343.438 138.945 343.75 138.117C344.078 137.305 344.266 136.328 344.312 135.188L336.672 102.727H342.695L346.094 120.586L347.078 126.75H347.266L347.945 120.586L350.688 102.727H356.523L349.727 136.195C349.43 137.742 349.047 139.094 348.578 140.25C348.125 141.406 347.555 142.367 346.867 143.133C346.195 143.898 345.391 144.469 344.453 144.844C343.516 145.234 342.422 145.43 341.172 145.43C340.156 145.43 339.117 145.234 338.055 144.844L338.078 141.211ZM370.984 94.9688H386.289V99.75H377.055V111.727H384.297V116.508H377.055V135H370.984V94.9688ZM389.969 102.727H394.305L394.82 106.008C395.477 104.789 396.227 103.875 397.07 103.266C397.93 102.656 398.805 102.352 399.695 102.352C401.398 102.352 402.656 102.875 403.469 103.922C404.281 104.969 404.688 106.539 404.688 108.633C404.688 108.898 404.664 109.219 404.617 109.594C404.586 109.953 404.531 110.336 404.453 110.742C404.391 111.133 404.305 111.531 404.195 111.938C404.102 112.328 404 112.688 403.891 113.016H399.766V110.016C399.766 109.359 399.719 108.82 399.625 108.398C399.547 107.977 399.438 107.641 399.297 107.391C399.156 107.125 398.992 106.945 398.805 106.852C398.617 106.742 398.414 106.688 398.195 106.688C397.727 106.688 397.289 106.844 396.883 107.156C396.492 107.453 396.164 107.875 395.898 108.422V135H389.969V102.727ZM416.57 135.352C415.883 135.352 415.18 135.297 414.461 135.188C413.758 135.078 413.07 134.852 412.398 134.508C411.742 134.164 411.117 133.672 410.523 133.031C409.945 132.391 409.438 131.547 409 130.5C408.562 129.453 408.219 128.164 407.969 126.633C407.719 125.102 407.594 123.273 407.594 121.148V116.086C407.594 113.992 407.719 112.203 407.969 110.719C408.234 109.219 408.586 107.961 409.023 106.945C409.477 105.93 410 105.125 410.594 104.531C411.188 103.922 411.812 103.461 412.469 103.148C413.141 102.82 413.828 102.609 414.531 102.516C415.234 102.406 415.922 102.352 416.594 102.352C417.234 102.352 417.898 102.398 418.586 102.492C419.273 102.586 419.945 102.789 420.602 103.102C421.258 103.398 421.875 103.852 422.453 104.461C423.047 105.055 423.562 105.859 424 106.875C424.453 107.891 424.805 109.156 425.055 110.672C425.32 112.172 425.453 113.977 425.453 116.086V121.148C425.453 123.242 425.32 125.047 425.055 126.562C424.789 128.078 424.43 129.359 423.977 130.406C423.523 131.453 423 132.305 422.406 132.961C421.812 133.602 421.188 134.102 420.531 134.461C419.875 134.82 419.203 135.055 418.516 135.164C417.844 135.289 417.195 135.352 416.57 135.352ZM416.617 130.781C417.148 130.781 417.594 130.648 417.953 130.383C418.328 130.102 418.625 129.648 418.844 129.023C419.078 128.398 419.242 127.578 419.336 126.562C419.445 125.531 419.5 124.258 419.5 122.742V114.797C419.5 113.281 419.445 112.008 419.336 110.977C419.242 109.945 419.078 109.117 418.844 108.492C418.625 107.852 418.328 107.391 417.953 107.109C417.594 106.828 417.148 106.688 416.617 106.688C416.055 106.688 415.578 106.828 415.188 107.109C414.812 107.391 414.5 107.852 414.25 108.492C414 109.117 413.82 109.945 413.711 110.977C413.602 112.008 413.547 113.281 413.547 114.797V122.742C413.547 124.258 413.602 125.531 413.711 126.562C413.82 127.578 414 128.398 414.25 129.023C414.5 129.648 414.812 130.102 415.188 130.383C415.578 130.648 416.055 130.781 416.617 130.781ZM430.703 102.727H435.273L435.812 106.172V106.195C436.281 105.461 436.781 104.852 437.312 104.367C437.859 103.867 438.422 103.469 439 103.172C439.578 102.875 440.164 102.664 440.758 102.539C441.367 102.414 441.969 102.352 442.562 102.352C444.453 102.352 445.906 103.016 446.922 104.344C447.953 105.656 448.469 107.633 448.469 110.273V135H442.539V110.484C442.539 109.062 442.32 108.078 441.883 107.531C441.445 106.969 440.805 106.688 439.961 106.688C439.367 106.688 438.773 106.883 438.18 107.273C437.602 107.664 437.086 108.203 436.633 108.891V135H430.703V102.727ZM455.289 106.945H452.781V102.727H455.805L457 94.3594H461.219V102.727H466.375V106.945H461.219V127.477C461.219 128.18 461.281 128.75 461.406 129.188C461.547 129.609 461.734 129.945 461.969 130.195C462.203 130.43 462.477 130.586 462.789 130.664C463.102 130.742 463.43 130.781 463.773 130.781C464.352 130.781 464.859 130.711 465.297 130.57C465.75 130.43 466.18 130.234 466.586 129.984V133.266C466.242 133.688 465.867 134.031 465.461 134.297C465.07 134.562 464.664 134.781 464.242 134.953C463.82 135.109 463.391 135.219 462.953 135.281C462.516 135.344 462.086 135.375 461.664 135.375C460.836 135.375 460.039 135.266 459.273 135.047C458.508 134.828 457.828 134.414 457.234 133.805C456.641 133.18 456.164 132.32 455.805 131.227C455.461 130.133 455.289 128.711 455.289 126.961V106.945ZM473.617 98.1094C472.523 98.1094 471.656 97.7812 471.016 97.125C470.391 96.4688 470.078 95.5078 470.078 94.2422C470.078 93.5391 470.156 92.9531 470.312 92.4844C470.484 92 470.719 91.6172 471.016 91.3359C471.328 91.0391 471.703 90.8281 472.141 90.7031C472.578 90.5625 473.078 90.4922 473.641 90.4922C474.812 90.4922 475.703 90.7891 476.312 91.3828C476.922 91.9766 477.227 92.9297 477.227 94.2422C477.227 95.4609 476.914 96.4141 476.289 97.1016C475.68 97.7734 474.789 98.1094 473.617 98.1094ZM470.547 102.727H476.477V135H470.547V102.727ZM490.469 135.352C489.078 135.352 487.844 135.094 486.766 134.578C485.703 134.062 484.805 133.258 484.07 132.164C483.336 131.07 482.781 129.672 482.406 127.969C482.031 126.25 481.844 124.188 481.844 121.781V115.688C481.844 113.641 481.992 111.891 482.289 110.438C482.602 108.969 483 107.742 483.484 106.758C483.984 105.758 484.555 104.969 485.195 104.391C485.852 103.812 486.523 103.375 487.211 103.078C487.898 102.766 488.578 102.57 489.25 102.492C489.938 102.398 490.57 102.352 491.148 102.352C492.211 102.352 493.234 102.516 494.219 102.844C495.203 103.156 496.07 103.703 496.82 104.484C497.57 105.25 498.164 106.281 498.602 107.578C499.055 108.875 499.281 110.492 499.281 112.43C499.281 113.086 499.258 113.75 499.211 114.422C499.18 115.094 499.133 115.758 499.07 116.414C499.008 117.055 498.922 117.68 498.812 118.289C498.719 118.898 498.617 119.461 498.508 119.977H487.797V123.258C487.797 124.664 487.852 125.852 487.961 126.82C488.07 127.773 488.25 128.547 488.5 129.141C488.766 129.719 489.117 130.141 489.555 130.406C490.008 130.656 490.57 130.781 491.242 130.781C491.602 130.781 491.953 130.711 492.297 130.57C492.641 130.414 492.938 130.164 493.188 129.82C493.453 129.477 493.664 129.023 493.82 128.461C493.977 127.883 494.055 127.172 494.055 126.328V125.32H499V126.562C499 129.625 498.266 131.859 496.797 133.266C495.344 134.656 493.234 135.352 490.469 135.352ZM493.75 115.992C493.766 115.82 493.781 115.594 493.797 115.312C493.812 115.016 493.82 114.711 493.82 114.398C493.836 114.086 493.844 113.781 493.844 113.484C493.844 113.172 493.844 112.906 493.844 112.688C493.844 110.562 493.594 109.031 493.094 108.094C492.594 107.156 491.852 106.688 490.867 106.688C490.352 106.688 489.898 106.812 489.508 107.062C489.117 107.297 488.797 107.703 488.547 108.281C488.297 108.844 488.109 109.594 487.984 110.531C487.859 111.469 487.797 112.633 487.797 114.023V115.992H493.75ZM504.297 102.727H508.633L509.148 106.008C509.805 104.789 510.555 103.875 511.398 103.266C512.258 102.656 513.133 102.352 514.023 102.352C515.727 102.352 516.984 102.875 517.797 103.922C518.609 104.969 519.016 106.539 519.016 108.633C519.016 108.898 518.992 109.219 518.945 109.594C518.914 109.953 518.859 110.336 518.781 110.742C518.719 111.133 518.633 111.531 518.523 111.938C518.43 112.328 518.328 112.688 518.219 113.016H514.094V110.016C514.094 109.359 514.047 108.82 513.953 108.398C513.875 107.977 513.766 107.641 513.625 107.391C513.484 107.125 513.32 106.945 513.133 106.852C512.945 106.742 512.742 106.688 512.523 106.688C512.055 106.688 511.617 106.844 511.211 107.156C510.82 107.453 510.492 107.875 510.227 108.422V135H504.297V102.727Z" fill="#092AA5"/>
<g id="visibility_24px">
<path id="icon/action/visibility_24px" fill-rule="evenodd" clip-rule="evenodd" d="M49.5833 78C54.0525 66.6592 65.0833 58.625 78 58.625C90.9167 58.625 101.947 66.6592 106.417 78C101.947 89.3408 90.9167 97.375 78 97.375C65.0833 97.375 54.0525 89.3408 49.5833 78ZM81 78C81 79.6533 79.6533 81 78 81C76.3467 81 75 79.6533 75 78C75 76.3467 76.3467 75 78 75C79.6533 75 81 76.3467 81 78ZM77.5 67C83.296 67 88 71.704 88 77.5C88 83.296 83.296 88 77.5 88C71.704 88 67 83.296 67 77.5C67 71.704 71.704 67 77.5 67ZM100.785 78C96.5225 69.2942 87.7908 63.7917 78 63.7917C68.2092 63.7917 59.4775 69.2942 55.215 78C59.4775 86.7058 68.2092 92.2083 78 92.2083C87.7908 92.2083 96.5225 86.7058 100.785 78Z" fill="#092AA5"/>
</g>
</g>
</svg>
